<svg width="2688" height="2021" viewBox="0 0 2688 2021" fill="none" xmlns="http://www.w3.org/2000/svg">
<rect x="459" width="443" height="2021" fill="white"/>
<path d="M0 2021L77.7 1936.79C155.4 1852.58 310.8 1684.17 336.7 1515.75C362.6 1347.33 259 1178.92 207.2 1010.5C155.4 842.083 155.4 673.667 198.621 505.25C241.194 336.833 328.606 168.417 371.179 84.2083L414.4 2.20538e-06H518V84.2083C518 168.417 518 336.833 518 505.25C518 673.667 518 842.083 518 1010.5C518 1178.92 518 1347.33 518 1515.75C518 1684.17 518 1852.58 518 1936.79V2021H0Z" fill="white"/>
<rect x="518" width="2170" height="2021" fill="white"/>
</svg>
