<svg width="2022" height="2513" viewBox="0 0 2022 2513" fill="none" xmlns="http://www.w3.org/2000/svg">
<rect x="2021.5" y="459.5" width="443" height="2021" transform="rotate(90 2021.5 459.5)" fill="white"/>
<path d="M0.5 0.5L84.7083 78.2C168.917 155.9 337.333 311.3 505.75 337.2C674.167 363.1 842.583 259.5 1011 207.7C1179.42 155.9 1347.83 155.9 1516.25 199.121C1684.67 241.694 1853.08 329.106 1937.29 371.679L2021.5 414.9L2021.5 518.5L1937.29 518.5C1853.08 518.5 1684.67 518.5 1516.25 518.5C1347.83 518.5 1179.42 518.5 1011 518.5C842.583 518.5 674.167 518.5 505.75 518.5C337.333 518.5 168.917 518.5 84.7083 518.5L0.499977 518.5L0.5 0.5Z" fill="white"/>
<rect x="2021.5" y="518.5" width="1994" height="2021" transform="rotate(90 2021.5 518.5)" fill="white"/>
</svg>
